<svg xmlns="http://www.w3.org/2000/svg" class="svg-icon-path-icon fill" viewBox="0 0 32 32" width="56" height="56"><path d="M32 29.984h-17.664c-4 0-8 0-12 0.032-0.064 0-0.096-0.032-0.128-0.032v-3.968h1.856v-2.016h-1.856v-4h1.856v-2.016h-1.856v-3.968h1.856v-2.016h-1.856v-3.968h1.856v-2.016h-0.192c-0.032-0.032-0.096-0.032-0.128-0.032-0.512 0.032-0.992 0-1.504 0.032h-0.032v-4h1.856v-2.016h-4.064v31.712c0 0.16 0.128 0.288 0.288 0.288h31.552c0.128 0.032 0.16-0.032 0.16-0.16v-1.856zM6.688 16.256c0.192 0.16 0.256 0.128 0.416-0.032 0.608-0.768 1.248-1.504 1.856-2.272 0.192-0.224 0.288-0.224 0.544-0.064 57.805 36.908 63.167 40.526 68.526 44.147l-52.078-33.171c0.224 0.16 0.32 0.128 0.448-0.128 0.672-1.248 1.376-2.496 2.048-3.744 0.096-0.192 0.16-0.224 0.384-0.096 0.48 0.256 0.96 0.512 1.504 0.8-0.032-2.016-0.096-4-0.128-6.016-1.728 1.056-3.424 2.080-5.152 3.136 0.544 0.288 1.024 0.576 1.536 0.832 0.16 0.096 0.192 0.16 0.096 0.352-0.266 0.431-0.596 1.017-0.908 1.614l-0.084 0.178c-0.192 0.32-0.192 0.32-0.512 0.128l-16.128-10.752c-0.128-0.096-0.256-0.224-0.416 0-1.543 1.871-2.58 3.1-3.623 4.322l0.455-0.546c-0.096 0.128-0.096 0.192 0.032 0.32 0.416 0.32 0.8 0.64 1.184 0.992zM15.232 14.112c0.16 0.096 0.224 0.064 0.32-0.064 0.192-0.256 0.416-0.48 0.608-0.736 0.128-0.192 0.224-0.16 0.416-0.064 1.888 1.28 3.776 2.528 5.664 3.808 0.192 0.128 0.256 0.128 0.384-0.064 0.608-1.12 1.248-2.24 1.888-3.36 1.248-2.176 2.528-4.384 3.776-6.592 0.128-0.224 0.192-0.256 0.416-0.128 0.384 0.256 0.768 0.448 1.152 0.672 0.32 0.192 0.32 0.192 0.32-0.16 0-1.792-0.032-3.616-0.032-5.44 0-0.064 0.032-0.128-0.064-0.224-1.696 0.992-3.392 1.984-5.152 3.008 0.544 0.32 1.024 0.608 1.504 0.864 0.192 0.096 0.224 0.192 0.096 0.384-1.536 2.688-3.040 5.344-4.576 8.032-0.128 0.224-0.192 0.256-0.416 0.096-1.792-1.184-3.584-2.368-5.344-3.584-0.128-0.064-0.224-0.192-0.384 0-0.64 0.8-1.312 1.6-1.952 2.368-0.128 0.128-0.128 0.192 0.032 0.288 0.448 0.288 0.896 0.576 1.344 0.896zM6.752 24.288c0.032 0.032 0.096 0.064 0.16 0.128 0.064-0.064 0.128-0.128 0.16-0.192 1.888-2.272 3.776-4.512 5.632-6.752 0.128-0.16 0.128-0.224-0.032-0.32-0.448-0.288-0.896-0.576-1.312-0.896-0.16-0.096-0.256-0.064-0.352 0.064-0.48 0.576-0.928 1.12-1.408 1.696-1.344 1.632-2.72 3.264-4.096 4.896-0.096 0.128-0.192 0.192 0 0.32l1.248 1.056z"></path></svg>