<svg xmlns="http://www.w3.org/2000/svg" class="svg-icon-path-icon fill" viewBox="0 0 32 32" width="56" height="56"><path d="M4.928 29.984c-0.672-0.224-0.896-0.704-0.864-1.408v-2.656c0-0.896 0.416-1.312 1.312-1.312h4.16c0.096 0 0.224 0.064 0.288-0.064 0.032-0.064-0.064-0.16-0.096-0.224-2.176-3.68-4.352-7.36-6.528-11.008-0.032-0.096-0.096-0.16-0.128-0.256 2.592 1.824 5.024 1.728 7.296-0.512 0.768 1.312 1.568 2.656 2.336 4 1.536 2.624 3.072 5.216 4.576 7.84 0.096 0.16 0.224 0.224 0.416 0.224h4.416c0.928 0 1.312 0.416 1.312 1.344 0 0.896 0 1.792 0.032 2.688 0 0.672-0.224 1.12-0.896 1.344h-17.632zM29.888 10.752c-0.096 0.448-0.384 0.736-0.768 0.96-1.664 0.96-3.296 1.952-4.96 2.944-0.672 0.416-1.184 0.32-1.696-0.288-0.64-0.832-1.312-1.664-1.984-2.496-0.096-0.16-0.224-0.192-0.384-0.192h-1.984c-0.608 0-0.992-0.288-1.12-0.896-0.032-0.192-0.16-0.16-0.256-0.16h-5.088c-0.224 0-0.256-0.032-0.192-0.256 0.238-0.593 0.376-1.28 0.376-1.999 0-0.277-0.020-0.549-0.060-0.815l0.004 0.030c-0.064-0.374-0.164-0.707-0.299-1.021l0.011 0.029c-0.096-0.224-0.064-0.288 0.16-0.288l4.96 0.032c0.224 0 0.384-0.032 0.448-0.32 0.096-0.48 0.512-0.768 1.024-0.768 0.296-0.015 0.643-0.024 0.992-0.024s0.696 0.009 1.040 0.026l-0.048-0.002c0.224 0 0.32-0.064 0.448-0.224 0.64-0.8 1.28-1.568 1.888-2.368 0.224-0.288 0.48-0.512 0.832-0.64h0.448c0.192 0.096 0.384 0.192 0.608 0.32 1.6 0.96 3.168 1.92 4.8 2.88 0.384 0.224 0.704 0.48 0.8 0.96v0.32c-0.096 0.192-0.128 0.384-0.288 0.544-0.416 0.384-0.928 0.448-1.472 0.096-1.376-0.832-2.784-1.664-4.192-2.496-0.16-0.128-0.288-0.128-0.416 0.064-0.704 0.864-1.376 1.728-2.080 2.592-0.080 0.096-0.129 0.221-0.129 0.357 0 0.010 0 0.019 0.001 0.029l-0-0.001v1.568c0 0.128 0.032 0.256 0.128 0.384 0.704 0.864 1.408 1.728 2.080 2.592 0.128 0.192 0.224 0.192 0.416 0.064 1.408-0.832 2.784-1.664 4.192-2.496 0.288-0.192 0.608-0.288 0.96-0.192 0.48 0.096 0.704 0.448 0.832 0.864-0.032 0.096-0.032 0.192-0.032 0.288zM6.208 12.544c-2.272 0.032-4.096-1.792-4.096-4.064s1.824-4.128 4.096-4.128c2.26 0.005 4.091 1.836 4.096 4.096v0c0.032 2.272-1.824 4.096-4.096 4.096zM6.208 6.080c-1.312 0-2.4 1.088-2.368 2.4 0 1.28 1.088 2.368 2.368 2.368 1.312-0.032 2.368-1.088 2.368-2.4s-1.056-2.368-2.368-2.368zM6.208 9.6c-0.64 0-1.152-0.512-1.12-1.152 0-0.64 0.512-1.152 1.12-1.152 0.64 0.032 1.152 0.544 1.152 1.152 0 0.64-0.512 1.152-1.152 1.152z"></path></svg>